<?xml version="1.0" encoding="utf-8"?>
<svg version="1.1" xmlns="http://www.w3.org/2000/svg" xmlns:xlink="http://www.w3.org/1999/xlink" width="1000" height="1000" viewBox="0 0 1000 1225" enable-background="new 0 0 1000 1000" xml:space="preserve"><rect x="25" y="25" width="950" height="1175" fill="rgb(255,255,255)" fill-opacity="1.0" /> /><rect x="0" y="0" rx="100" ry="100" width="1000" height="1000" fill="rgb(0,0,0)" opacity="1.0" /><rect x="25" y="25" rx="70" ry="70" width="950" height="950" fill="rgb(255,255,255)" fill-opacity="1.0" /> /><polygon points="0,850 0,1150 50,1000" fill="rgb(0,0,0)" opacity="1.0" /><polygon points="1000,850 1000,1150 950,1000" fill="rgb(0,0,0)" opacity="1.0" /><rect x="0" y="975" rx="70" ry="70" width="1000" height="250" fill="rgb(0,0,0)" opacity="1.0" /><polygon points="375,975 625,975 500,900" fill="rgb(0,0,0)" opacity="1.0" /><text x="74.38068" y="1116.0449" fill="white" font-family="Arial" font-size="62.0">More Detailed Coding Portfolio</text><g transform="translate(150,150) scale(0.70000005,0.70000005)"><svg width="1000" height="1000" viewBox="0 0 580 580" enable-background="new 0 0 1000 1000" xml:space="preserve"><rect x="0" y="0" width="580" height="580" fill="rgb(255,255,255)" opacity="1.0" /><rect x="160" y="0" width="20" height="20" fill="rgb(0,0,0)" opacity="1.0" shape-rendering="crispEdges" /><rect x="180" y="0" width="20" height="20" fill="rgb(0,0,0)" opacity="1.0" shape-rendering="crispEdges" /><rect x="200" y="0" width="20" height="20" fill="rgb(0,0,0)" opacity="1.0" shape-rendering="crispEdges" /><rect x="260" y="0" width="20" height="20" fill="rgb(0,0,0)" opacity="1.0" shape-rendering="crispEdges" /><rect x="280" y="0" width="20" height="20" fill="rgb(0,0,0)" opacity="1.0" shape-rendering="crispEdges" /><rect x="320" y="0" width="20" height="20" fill="rgb(0,0,0)" opacity="1.0" shape-rendering="crispEdges" /><rect x="200" y="20" width="20" height="20" fill="rgb(0,0,0)" opacity="1.0" shape-rendering="crispEdges" /><rect x="240" y="20" width="20" height="20" fill="rgb(0,0,0)" opacity="1.0" shape-rendering="crispEdges" /><rect x="280" y="20" width="20" height="20" fill="rgb(0,0,0)" opacity="1.0" shape-rendering="crispEdges" /><rect x="300" y="20" width="20" height="20" fill="rgb(0,0,0)" opacity="1.0" shape-rendering="crispEdges" /><rect x="340" y="20" width="20" height="20" fill="rgb(0,0,0)" opacity="1.0" shape-rendering="crispEdges" /><rect x="400" y="20" width="20" height="20" fill="rgb(0,0,0)" opacity="1.0" shape-rendering="crispEdges" /><rect x="180" y="40" width="20" height="20" fill="rgb(0,0,0)" opacity="1.0" shape-rendering="crispEdges" /><rect x="240" y="40" width="20" height="20" fill="rgb(0,0,0)" opacity="1.0" shape-rendering="crispEdges" /><rect x="260" y="40" width="20" height="20" fill="rgb(0,0,0)" opacity="1.0" shape-rendering="crispEdges" /><rect x="340" y="40" width="20" height="20" fill="rgb(0,0,0)" opacity="1.0" shape-rendering="crispEdges" /><rect x="360" y="40" width="20" height="20" fill="rgb(0,0,0)" opacity="1.0" shape-rendering="crispEdges" /><rect x="380" y="40" width="20" height="20" fill="rgb(0,0,0)" opacity="1.0" shape-rendering="crispEdges" /><rect x="400" y="40" width="20" height="20" fill="rgb(0,0,0)" opacity="1.0" shape-rendering="crispEdges" /><rect x="160" y="60" width="20" height="20" fill="rgb(0,0,0)" opacity="1.0" shape-rendering="crispEdges" /><rect x="180" y="60" width="20" height="20" fill="rgb(0,0,0)" opacity="1.0" shape-rendering="crispEdges" /><rect x="200" y="60" width="20" height="20" fill="rgb(0,0,0)" opacity="1.0" shape-rendering="crispEdges" /><rect x="220" y="60" width="20" height="20" fill="rgb(0,0,0)" opacity="1.0" shape-rendering="crispEdges" /><rect x="260" y="60" width="20" height="20" fill="rgb(0,0,0)" opacity="1.0" shape-rendering="crispEdges" /><rect x="280" y="60" width="20" height="20" fill="rgb(0,0,0)" opacity="1.0" shape-rendering="crispEdges" /><rect x="300" y="60" width="20" height="20" fill="rgb(0,0,0)" opacity="1.0" shape-rendering="crispEdges" /><rect x="160" y="80" width="20" height="20" fill="rgb(0,0,0)" opacity="1.0" shape-rendering="crispEdges" /><rect x="200" y="80" width="20" height="20" fill="rgb(0,0,0)" opacity="1.0" shape-rendering="crispEdges" /><rect x="220" y="80" width="20" height="20" fill="rgb(0,0,0)" opacity="1.0" shape-rendering="crispEdges" /><rect x="240" y="80" width="20" height="20" fill="rgb(0,0,0)" opacity="1.0" shape-rendering="crispEdges" /><rect x="260" y="80" width="20" height="20" fill="rgb(0,0,0)" opacity="1.0" shape-rendering="crispEdges" /><rect x="280" y="80" width="20" height="20" fill="rgb(0,0,0)" opacity="1.0" shape-rendering="crispEdges" /><rect x="320" y="80" width="20" height="20" fill="rgb(0,0,0)" opacity="1.0" shape-rendering="crispEdges" /><rect x="360" y="80" width="20" height="20" fill="rgb(0,0,0)" opacity="1.0" shape-rendering="crispEdges" /><rect x="380" y="80" width="20" height="20" fill="rgb(0,0,0)" opacity="1.0" shape-rendering="crispEdges" /><rect x="400" y="80" width="20" height="20" fill="rgb(0,0,0)" opacity="1.0" shape-rendering="crispEdges" /><rect x="160" y="100" width="20" height="20" fill="rgb(0,0,0)" opacity="1.0" shape-rendering="crispEdges" /><rect x="200" y="100" width="20" height="20" fill="rgb(0,0,0)" opacity="1.0" shape-rendering="crispEdges" /><rect x="340" y="100" width="20" height="20" fill="rgb(0,0,0)" opacity="1.0" shape-rendering="crispEdges" /><rect x="380" y="100" width="20" height="20" fill="rgb(0,0,0)" opacity="1.0" shape-rendering="crispEdges" /><rect x="160" y="120" width="20" height="20" fill="rgb(0,0,0)" opacity="1.0" shape-rendering="crispEdges" /><rect x="200" y="120" width="20" height="20" fill="rgb(0,0,0)" opacity="1.0" shape-rendering="crispEdges" /><rect x="240" y="120" width="20" height="20" fill="rgb(0,0,0)" opacity="1.0" shape-rendering="crispEdges" /><rect x="280" y="120" width="20" height="20" fill="rgb(0,0,0)" opacity="1.0" shape-rendering="crispEdges" /><rect x="320" y="120" width="20" height="20" fill="rgb(0,0,0)" opacity="1.0" shape-rendering="crispEdges" /><rect x="360" y="120" width="20" height="20" fill="rgb(0,0,0)" opacity="1.0" shape-rendering="crispEdges" /><rect x="400" y="120" width="20" height="20" fill="rgb(0,0,0)" opacity="1.0" shape-rendering="crispEdges" /><rect x="160" y="140" width="20" height="20" fill="rgb(0,0,0)" opacity="1.0" shape-rendering="crispEdges" /><rect x="180" y="140" width="20" height="20" fill="rgb(0,0,0)" opacity="1.0" shape-rendering="crispEdges" /><rect x="340" y="140" width="20" height="20" fill="rgb(0,0,0)" opacity="1.0" shape-rendering="crispEdges" /><rect x="360" y="140" width="20" height="20" fill="rgb(0,0,0)" opacity="1.0" shape-rendering="crispEdges" /><rect x="380" y="140" width="20" height="20" fill="rgb(0,0,0)" opacity="1.0" shape-rendering="crispEdges" /><rect x="400" y="140" width="20" height="20" fill="rgb(0,0,0)" opacity="1.0" shape-rendering="crispEdges" /><rect x="0" y="160" width="20" height="20" fill="rgb(0,0,0)" opacity="1.0" shape-rendering="crispEdges" /><rect x="80" y="160" width="20" height="20" fill="rgb(0,0,0)" opacity="1.0" shape-rendering="crispEdges" /><rect x="120" y="160" width="20" height="20" fill="rgb(0,0,0)" opacity="1.0" shape-rendering="crispEdges" /><rect x="140" y="160" width="20" height="20" fill="rgb(0,0,0)" opacity="1.0" shape-rendering="crispEdges" /><rect x="160" y="160" width="20" height="20" fill="rgb(0,0,0)" opacity="1.0" shape-rendering="crispEdges" /><rect x="240" y="160" width="20" height="20" fill="rgb(0,0,0)" opacity="1.0" shape-rendering="crispEdges" /><rect x="260" y="160" width="20" height="20" fill="rgb(0,0,0)" opacity="1.0" shape-rendering="crispEdges" /><rect x="280" y="160" width="20" height="20" fill="rgb(0,0,0)" opacity="1.0" shape-rendering="crispEdges" /><rect x="320" y="160" width="20" height="20" fill="rgb(0,0,0)" opacity="1.0" shape-rendering="crispEdges" /><rect x="380" y="160" width="20" height="20" fill="rgb(0,0,0)" opacity="1.0" shape-rendering="crispEdges" /><rect x="420" y="160" width="20" height="20" fill="rgb(0,0,0)" opacity="1.0" shape-rendering="crispEdges" /><rect x="440" y="160" width="20" height="20" fill="rgb(0,0,0)" opacity="1.0" shape-rendering="crispEdges" /><rect x="460" y="160" width="20" height="20" fill="rgb(0,0,0)" opacity="1.0" shape-rendering="crispEdges" /><rect x="480" y="160" width="20" height="20" fill="rgb(0,0,0)" opacity="1.0" shape-rendering="crispEdges" /><rect x="500" y="160" width="20" height="20" fill="rgb(0,0,0)" opacity="1.0" shape-rendering="crispEdges" /><rect x="560" y="160" width="20" height="20" fill="rgb(0,0,0)" opacity="1.0" shape-rendering="crispEdges" /><rect x="0" y="180" width="20" height="20" fill="rgb(0,0,0)" opacity="1.0" shape-rendering="crispEdges" /><rect x="20" y="180" width="20" height="20" fill="rgb(0,0,0)" opacity="1.0" shape-rendering="crispEdges" /><rect x="100" y="180" width="20" height="20" fill="rgb(0,0,0)" opacity="1.0" shape-rendering="crispEdges" /><rect x="180" y="180" width="20" height="20" fill="rgb(0,0,0)" opacity="1.0" shape-rendering="crispEdges" /><rect x="200" y="180" width="20" height="20" fill="rgb(0,0,0)" opacity="1.0" shape-rendering="crispEdges" /><rect x="260" y="180" width="20" height="20" fill="rgb(0,0,0)" opacity="1.0" shape-rendering="crispEdges" /><rect x="300" y="180" width="20" height="20" fill="rgb(0,0,0)" opacity="1.0" shape-rendering="crispEdges" /><rect x="360" y="180" width="20" height="20" fill="rgb(0,0,0)" opacity="1.0" shape-rendering="crispEdges" /><rect x="380" y="180" width="20" height="20" fill="rgb(0,0,0)" opacity="1.0" shape-rendering="crispEdges" /><rect x="420" y="180" width="20" height="20" fill="rgb(0,0,0)" opacity="1.0" shape-rendering="crispEdges" /><rect x="520" y="180" width="20" height="20" fill="rgb(0,0,0)" opacity="1.0" shape-rendering="crispEdges" /><rect x="40" y="200" width="20" height="20" fill="rgb(0,0,0)" opacity="1.0" shape-rendering="crispEdges" /><rect x="60" y="200" width="20" height="20" fill="rgb(0,0,0)" opacity="1.0" shape-rendering="crispEdges" /><rect x="80" y="200" width="20" height="20" fill="rgb(0,0,0)" opacity="1.0" shape-rendering="crispEdges" /><rect x="100" y="200" width="20" height="20" fill="rgb(0,0,0)" opacity="1.0" shape-rendering="crispEdges" /><rect x="120" y="200" width="20" height="20" fill="rgb(0,0,0)" opacity="1.0" shape-rendering="crispEdges" /><rect x="160" y="200" width="20" height="20" fill="rgb(0,0,0)" opacity="1.0" shape-rendering="crispEdges" /><rect x="260" y="200" width="20" height="20" fill="rgb(0,0,0)" opacity="1.0" shape-rendering="crispEdges" /><rect x="280" y="200" width="20" height="20" fill="rgb(0,0,0)" opacity="1.0" shape-rendering="crispEdges" /><rect x="300" y="200" width="20" height="20" fill="rgb(0,0,0)" opacity="1.0" shape-rendering="crispEdges" /><rect x="320" y="200" width="20" height="20" fill="rgb(0,0,0)" opacity="1.0" shape-rendering="crispEdges" /><rect x="360" y="200" width="20" height="20" fill="rgb(0,0,0)" opacity="1.0" shape-rendering="crispEdges" /><rect x="380" y="200" width="20" height="20" fill="rgb(0,0,0)" opacity="1.0" shape-rendering="crispEdges" /><rect x="440" y="200" width="20" height="20" fill="rgb(0,0,0)" opacity="1.0" shape-rendering="crispEdges" /><rect x="460" y="200" width="20" height="20" fill="rgb(0,0,0)" opacity="1.0" shape-rendering="crispEdges" /><rect x="480" y="200" width="20" height="20" fill="rgb(0,0,0)" opacity="1.0" shape-rendering="crispEdges" /><rect x="500" y="200" width="20" height="20" fill="rgb(0,0,0)" opacity="1.0" shape-rendering="crispEdges" /><rect x="520" y="200" width="20" height="20" fill="rgb(0,0,0)" opacity="1.0" shape-rendering="crispEdges" /><rect x="560" y="200" width="20" height="20" fill="rgb(0,0,0)" opacity="1.0" shape-rendering="crispEdges" /><rect x="0" y="220" width="20" height="20" fill="rgb(0,0,0)" opacity="1.0" shape-rendering="crispEdges" /><rect x="20" y="220" width="20" height="20" fill="rgb(0,0,0)" opacity="1.0" shape-rendering="crispEdges" /><rect x="80" y="220" width="20" height="20" fill="rgb(0,0,0)" opacity="1.0" shape-rendering="crispEdges" /><rect x="160" y="220" width="20" height="20" fill="rgb(0,0,0)" opacity="1.0" shape-rendering="crispEdges" /><rect x="180" y="220" width="20" height="20" fill="rgb(0,0,0)" opacity="1.0" shape-rendering="crispEdges" /><rect x="220" y="220" width="20" height="20" fill="rgb(0,0,0)" opacity="1.0" shape-rendering="crispEdges" /><rect x="240" y="220" width="20" height="20" fill="rgb(0,0,0)" opacity="1.0" shape-rendering="crispEdges" /><rect x="280" y="220" width="20" height="20" fill="rgb(0,0,0)" opacity="1.0" shape-rendering="crispEdges" /><rect x="340" y="220" width="20" height="20" fill="rgb(0,0,0)" opacity="1.0" shape-rendering="crispEdges" /><rect x="380" y="220" width="20" height="20" fill="rgb(0,0,0)" opacity="1.0" shape-rendering="crispEdges" /><rect x="500" y="220" width="20" height="20" fill="rgb(0,0,0)" opacity="1.0" shape-rendering="crispEdges" /><rect x="0" y="240" width="20" height="20" fill="rgb(0,0,0)" opacity="1.0" shape-rendering="crispEdges" /><rect x="60" y="240" width="20" height="20" fill="rgb(0,0,0)" opacity="1.0" shape-rendering="crispEdges" /><rect x="120" y="240" width="20" height="20" fill="rgb(0,0,0)" opacity="1.0" shape-rendering="crispEdges" /><rect x="140" y="240" width="20" height="20" fill="rgb(0,0,0)" opacity="1.0" shape-rendering="crispEdges" /><rect x="180" y="240" width="20" height="20" fill="rgb(0,0,0)" opacity="1.0" shape-rendering="crispEdges" /><rect x="240" y="240" width="20" height="20" fill="rgb(0,0,0)" opacity="1.0" shape-rendering="crispEdges" /><rect x="260" y="240" width="20" height="20" fill="rgb(0,0,0)" opacity="1.0" shape-rendering="crispEdges" /><rect x="280" y="240" width="20" height="20" fill="rgb(0,0,0)" opacity="1.0" shape-rendering="crispEdges" /><rect x="340" y="240" width="20" height="20" fill="rgb(0,0,0)" opacity="1.0" shape-rendering="crispEdges" /><rect x="380" y="240" width="20" height="20" fill="rgb(0,0,0)" opacity="1.0" shape-rendering="crispEdges" /><rect x="400" y="240" width="20" height="20" fill="rgb(0,0,0)" opacity="1.0" shape-rendering="crispEdges" /><rect x="460" y="240" width="20" height="20" fill="rgb(0,0,0)" opacity="1.0" shape-rendering="crispEdges" /><rect x="480" y="240" width="20" height="20" fill="rgb(0,0,0)" opacity="1.0" shape-rendering="crispEdges" /><rect x="500" y="240" width="20" height="20" fill="rgb(0,0,0)" opacity="1.0" shape-rendering="crispEdges" /><rect x="520" y="240" width="20" height="20" fill="rgb(0,0,0)" opacity="1.0" shape-rendering="crispEdges" /><rect x="540" y="240" width="20" height="20" fill="rgb(0,0,0)" opacity="1.0" shape-rendering="crispEdges" /><rect x="0" y="260" width="20" height="20" fill="rgb(0,0,0)" opacity="1.0" shape-rendering="crispEdges" /><rect x="20" y="260" width="20" height="20" fill="rgb(0,0,0)" opacity="1.0" shape-rendering="crispEdges" /><rect x="60" y="260" width="20" height="20" fill="rgb(0,0,0)" opacity="1.0" shape-rendering="crispEdges" /><rect x="100" y="260" width="20" height="20" fill="rgb(0,0,0)" opacity="1.0" shape-rendering="crispEdges" /><rect x="180" y="260" width="20" height="20" fill="rgb(0,0,0)" opacity="1.0" shape-rendering="crispEdges" /><rect x="200" y="260" width="20" height="20" fill="rgb(0,0,0)" opacity="1.0" shape-rendering="crispEdges" /><rect x="220" y="260" width="20" height="20" fill="rgb(0,0,0)" opacity="1.0" shape-rendering="crispEdges" /><rect x="240" y="260" width="20" height="20" fill="rgb(0,0,0)" opacity="1.0" shape-rendering="crispEdges" /><rect x="260" y="260" width="20" height="20" fill="rgb(0,0,0)" opacity="1.0" shape-rendering="crispEdges" /><rect x="280" y="260" width="20" height="20" fill="rgb(0,0,0)" opacity="1.0" shape-rendering="crispEdges" /><rect x="300" y="260" width="20" height="20" fill="rgb(0,0,0)" opacity="1.0" shape-rendering="crispEdges" /><rect x="360" y="260" width="20" height="20" fill="rgb(0,0,0)" opacity="1.0" shape-rendering="crispEdges" /><rect x="400" y="260" width="20" height="20" fill="rgb(0,0,0)" opacity="1.0" shape-rendering="crispEdges" /><rect x="420" y="260" width="20" height="20" fill="rgb(0,0,0)" opacity="1.0" shape-rendering="crispEdges" /><rect x="440" y="260" width="20" height="20" fill="rgb(0,0,0)" opacity="1.0" shape-rendering="crispEdges" /><rect x="460" y="260" width="20" height="20" fill="rgb(0,0,0)" opacity="1.0" shape-rendering="crispEdges" /><rect x="480" y="260" width="20" height="20" fill="rgb(0,0,0)" opacity="1.0" shape-rendering="crispEdges" /><rect x="520" y="260" width="20" height="20" fill="rgb(0,0,0)" opacity="1.0" shape-rendering="crispEdges" /><rect x="0" y="280" width="20" height="20" fill="rgb(0,0,0)" opacity="1.0" shape-rendering="crispEdges" /><rect x="120" y="280" width="20" height="20" fill="rgb(0,0,0)" opacity="1.0" shape-rendering="crispEdges" /><rect x="200" y="280" width="20" height="20" fill="rgb(0,0,0)" opacity="1.0" shape-rendering="crispEdges" /><rect x="220" y="280" width="20" height="20" fill="rgb(0,0,0)" opacity="1.0" shape-rendering="crispEdges" /><rect x="240" y="280" width="20" height="20" fill="rgb(0,0,0)" opacity="1.0" shape-rendering="crispEdges" /><rect x="260" y="280" width="20" height="20" fill="rgb(0,0,0)" opacity="1.0" shape-rendering="crispEdges" /><rect x="280" y="280" width="20" height="20" fill="rgb(0,0,0)" opacity="1.0" shape-rendering="crispEdges" /><rect x="300" y="280" width="20" height="20" fill="rgb(0,0,0)" opacity="1.0" shape-rendering="crispEdges" /><rect x="360" y="280" width="20" height="20" fill="rgb(0,0,0)" opacity="1.0" shape-rendering="crispEdges" /><rect x="380" y="280" width="20" height="20" fill="rgb(0,0,0)" opacity="1.0" shape-rendering="crispEdges" /><rect x="400" y="280" width="20" height="20" fill="rgb(0,0,0)" opacity="1.0" shape-rendering="crispEdges" /><rect x="440" y="280" width="20" height="20" fill="rgb(0,0,0)" opacity="1.0" shape-rendering="crispEdges" /><rect x="480" y="280" width="20" height="20" fill="rgb(0,0,0)" opacity="1.0" shape-rendering="crispEdges" /><rect x="500" y="280" width="20" height="20" fill="rgb(0,0,0)" opacity="1.0" shape-rendering="crispEdges" /><rect x="520" y="280" width="20" height="20" fill="rgb(0,0,0)" opacity="1.0" shape-rendering="crispEdges" /><rect x="540" y="280" width="20" height="20" fill="rgb(0,0,0)" opacity="1.0" shape-rendering="crispEdges" /><rect x="0" y="300" width="20" height="20" fill="rgb(0,0,0)" opacity="1.0" shape-rendering="crispEdges" /><rect x="60" y="300" width="20" height="20" fill="rgb(0,0,0)" opacity="1.0" shape-rendering="crispEdges" /><rect x="80" y="300" width="20" height="20" fill="rgb(0,0,0)" opacity="1.0" shape-rendering="crispEdges" /><rect x="100" y="300" width="20" height="20" fill="rgb(0,0,0)" opacity="1.0" shape-rendering="crispEdges" /><rect x="140" y="300" width="20" height="20" fill="rgb(0,0,0)" opacity="1.0" shape-rendering="crispEdges" /><rect x="160" y="300" width="20" height="20" fill="rgb(0,0,0)" opacity="1.0" shape-rendering="crispEdges" /><rect x="180" y="300" width="20" height="20" fill="rgb(0,0,0)" opacity="1.0" shape-rendering="crispEdges" /><rect x="200" y="300" width="20" height="20" fill="rgb(0,0,0)" opacity="1.0" shape-rendering="crispEdges" /><rect x="240" y="300" width="20" height="20" fill="rgb(0,0,0)" opacity="1.0" shape-rendering="crispEdges" /><rect x="280" y="300" width="20" height="20" fill="rgb(0,0,0)" opacity="1.0" shape-rendering="crispEdges" /><rect x="380" y="300" width="20" height="20" fill="rgb(0,0,0)" opacity="1.0" shape-rendering="crispEdges" /><rect x="400" y="300" width="20" height="20" fill="rgb(0,0,0)" opacity="1.0" shape-rendering="crispEdges" /><rect x="420" y="300" width="20" height="20" fill="rgb(0,0,0)" opacity="1.0" shape-rendering="crispEdges" /><rect x="540" y="300" width="20" height="20" fill="rgb(0,0,0)" opacity="1.0" shape-rendering="crispEdges" /><rect x="0" y="320" width="20" height="20" fill="rgb(0,0,0)" opacity="1.0" shape-rendering="crispEdges" /><rect x="60" y="320" width="20" height="20" fill="rgb(0,0,0)" opacity="1.0" shape-rendering="crispEdges" /><rect x="80" y="320" width="20" height="20" fill="rgb(0,0,0)" opacity="1.0" shape-rendering="crispEdges" /><rect x="100" y="320" width="20" height="20" fill="rgb(0,0,0)" opacity="1.0" shape-rendering="crispEdges" /><rect x="120" y="320" width="20" height="20" fill="rgb(0,0,0)" opacity="1.0" shape-rendering="crispEdges" /><rect x="140" y="320" width="20" height="20" fill="rgb(0,0,0)" opacity="1.0" shape-rendering="crispEdges" /><rect x="220" y="320" width="20" height="20" fill="rgb(0,0,0)" opacity="1.0" shape-rendering="crispEdges" /><rect x="240" y="320" width="20" height="20" fill="rgb(0,0,0)" opacity="1.0" shape-rendering="crispEdges" /><rect x="260" y="320" width="20" height="20" fill="rgb(0,0,0)" opacity="1.0" shape-rendering="crispEdges" /><rect x="280" y="320" width="20" height="20" fill="rgb(0,0,0)" opacity="1.0" shape-rendering="crispEdges" /><rect x="320" y="320" width="20" height="20" fill="rgb(0,0,0)" opacity="1.0" shape-rendering="crispEdges" /><rect x="340" y="320" width="20" height="20" fill="rgb(0,0,0)" opacity="1.0" shape-rendering="crispEdges" /><rect x="380" y="320" width="20" height="20" fill="rgb(0,0,0)" opacity="1.0" shape-rendering="crispEdges" /><rect x="440" y="320" width="20" height="20" fill="rgb(0,0,0)" opacity="1.0" shape-rendering="crispEdges" /><rect x="480" y="320" width="20" height="20" fill="rgb(0,0,0)" opacity="1.0" shape-rendering="crispEdges" /><rect x="500" y="320" width="20" height="20" fill="rgb(0,0,0)" opacity="1.0" shape-rendering="crispEdges" /><rect x="520" y="320" width="20" height="20" fill="rgb(0,0,0)" opacity="1.0" shape-rendering="crispEdges" /><rect x="540" y="320" width="20" height="20" fill="rgb(0,0,0)" opacity="1.0" shape-rendering="crispEdges" /><rect x="0" y="340" width="20" height="20" fill="rgb(0,0,0)" opacity="1.0" shape-rendering="crispEdges" /><rect x="20" y="340" width="20" height="20" fill="rgb(0,0,0)" opacity="1.0" shape-rendering="crispEdges" /><rect x="40" y="340" width="20" height="20" fill="rgb(0,0,0)" opacity="1.0" shape-rendering="crispEdges" /><rect x="60" y="340" width="20" height="20" fill="rgb(0,0,0)" opacity="1.0" shape-rendering="crispEdges" /><rect x="80" y="340" width="20" height="20" fill="rgb(0,0,0)" opacity="1.0" shape-rendering="crispEdges" /><rect x="100" y="340" width="20" height="20" fill="rgb(0,0,0)" opacity="1.0" shape-rendering="crispEdges" /><rect x="160" y="340" width="20" height="20" fill="rgb(0,0,0)" opacity="1.0" shape-rendering="crispEdges" /><rect x="180" y="340" width="20" height="20" fill="rgb(0,0,0)" opacity="1.0" shape-rendering="crispEdges" /><rect x="260" y="340" width="20" height="20" fill="rgb(0,0,0)" opacity="1.0" shape-rendering="crispEdges" /><rect x="280" y="340" width="20" height="20" fill="rgb(0,0,0)" opacity="1.0" shape-rendering="crispEdges" /><rect x="320" y="340" width="20" height="20" fill="rgb(0,0,0)" opacity="1.0" shape-rendering="crispEdges" /><rect x="380" y="340" width="20" height="20" fill="rgb(0,0,0)" opacity="1.0" shape-rendering="crispEdges" /><rect x="440" y="340" width="20" height="20" fill="rgb(0,0,0)" opacity="1.0" shape-rendering="crispEdges" /><rect x="460" y="340" width="20" height="20" fill="rgb(0,0,0)" opacity="1.0" shape-rendering="crispEdges" /><rect x="520" y="340" width="20" height="20" fill="rgb(0,0,0)" opacity="1.0" shape-rendering="crispEdges" /><rect x="540" y="340" width="20" height="20" fill="rgb(0,0,0)" opacity="1.0" shape-rendering="crispEdges" /><rect x="560" y="340" width="20" height="20" fill="rgb(0,0,0)" opacity="1.0" shape-rendering="crispEdges" /><rect x="80" y="360" width="20" height="20" fill="rgb(0,0,0)" opacity="1.0" shape-rendering="crispEdges" /><rect x="100" y="360" width="20" height="20" fill="rgb(0,0,0)" opacity="1.0" shape-rendering="crispEdges" /><rect x="120" y="360" width="20" height="20" fill="rgb(0,0,0)" opacity="1.0" shape-rendering="crispEdges" /><rect x="200" y="360" width="20" height="20" fill="rgb(0,0,0)" opacity="1.0" shape-rendering="crispEdges" /><rect x="220" y="360" width="20" height="20" fill="rgb(0,0,0)" opacity="1.0" shape-rendering="crispEdges" /><rect x="240" y="360" width="20" height="20" fill="rgb(0,0,0)" opacity="1.0" shape-rendering="crispEdges" /><rect x="300" y="360" width="20" height="20" fill="rgb(0,0,0)" opacity="1.0" shape-rendering="crispEdges" /><rect x="320" y="360" width="20" height="20" fill="rgb(0,0,0)" opacity="1.0" shape-rendering="crispEdges" /><rect x="360" y="360" width="20" height="20" fill="rgb(0,0,0)" opacity="1.0" shape-rendering="crispEdges" /><rect x="440" y="360" width="20" height="20" fill="rgb(0,0,0)" opacity="1.0" shape-rendering="crispEdges" /><rect x="460" y="360" width="20" height="20" fill="rgb(0,0,0)" opacity="1.0" shape-rendering="crispEdges" /><rect x="480" y="360" width="20" height="20" fill="rgb(0,0,0)" opacity="1.0" shape-rendering="crispEdges" /><rect x="500" y="360" width="20" height="20" fill="rgb(0,0,0)" opacity="1.0" shape-rendering="crispEdges" /><rect x="520" y="360" width="20" height="20" fill="rgb(0,0,0)" opacity="1.0" shape-rendering="crispEdges" /><rect x="560" y="360" width="20" height="20" fill="rgb(0,0,0)" opacity="1.0" shape-rendering="crispEdges" /><rect x="40" y="380" width="20" height="20" fill="rgb(0,0,0)" opacity="1.0" shape-rendering="crispEdges" /><rect x="80" y="380" width="20" height="20" fill="rgb(0,0,0)" opacity="1.0" shape-rendering="crispEdges" /><rect x="100" y="380" width="20" height="20" fill="rgb(0,0,0)" opacity="1.0" shape-rendering="crispEdges" /><rect x="160" y="380" width="20" height="20" fill="rgb(0,0,0)" opacity="1.0" shape-rendering="crispEdges" /><rect x="180" y="380" width="20" height="20" fill="rgb(0,0,0)" opacity="1.0" shape-rendering="crispEdges" /><rect x="200" y="380" width="20" height="20" fill="rgb(0,0,0)" opacity="1.0" shape-rendering="crispEdges" /><rect x="220" y="380" width="20" height="20" fill="rgb(0,0,0)" opacity="1.0" shape-rendering="crispEdges" /><rect x="380" y="380" width="20" height="20" fill="rgb(0,0,0)" opacity="1.0" shape-rendering="crispEdges" /><rect x="400" y="380" width="20" height="20" fill="rgb(0,0,0)" opacity="1.0" shape-rendering="crispEdges" /><rect x="540" y="380" width="20" height="20" fill="rgb(0,0,0)" opacity="1.0" shape-rendering="crispEdges" /><rect x="0" y="400" width="20" height="20" fill="rgb(0,0,0)" opacity="1.0" shape-rendering="crispEdges" /><rect x="20" y="400" width="20" height="20" fill="rgb(0,0,0)" opacity="1.0" shape-rendering="crispEdges" /><rect x="40" y="400" width="20" height="20" fill="rgb(0,0,0)" opacity="1.0" shape-rendering="crispEdges" /><rect x="60" y="400" width="20" height="20" fill="rgb(0,0,0)" opacity="1.0" shape-rendering="crispEdges" /><rect x="80" y="400" width="20" height="20" fill="rgb(0,0,0)" opacity="1.0" shape-rendering="crispEdges" /><rect x="100" y="400" width="20" height="20" fill="rgb(0,0,0)" opacity="1.0" shape-rendering="crispEdges" /><rect x="120" y="400" width="20" height="20" fill="rgb(0,0,0)" opacity="1.0" shape-rendering="crispEdges" /><rect x="140" y="400" width="20" height="20" fill="rgb(0,0,0)" opacity="1.0" shape-rendering="crispEdges" /><rect x="160" y="400" width="20" height="20" fill="rgb(0,0,0)" opacity="1.0" shape-rendering="crispEdges" /><rect x="180" y="400" width="20" height="20" fill="rgb(0,0,0)" opacity="1.0" shape-rendering="crispEdges" /><rect x="200" y="400" width="20" height="20" fill="rgb(0,0,0)" opacity="1.0" shape-rendering="crispEdges" /><rect x="260" y="400" width="20" height="20" fill="rgb(0,0,0)" opacity="1.0" shape-rendering="crispEdges" /><rect x="280" y="400" width="20" height="20" fill="rgb(0,0,0)" opacity="1.0" shape-rendering="crispEdges" /><rect x="380" y="400" width="20" height="20" fill="rgb(0,0,0)" opacity="1.0" shape-rendering="crispEdges" /><rect x="400" y="400" width="20" height="20" fill="rgb(0,0,0)" opacity="1.0" shape-rendering="crispEdges" /><rect x="420" y="400" width="20" height="20" fill="rgb(0,0,0)" opacity="1.0" shape-rendering="crispEdges" /><rect x="440" y="400" width="20" height="20" fill="rgb(0,0,0)" opacity="1.0" shape-rendering="crispEdges" /><rect x="460" y="400" width="20" height="20" fill="rgb(0,0,0)" opacity="1.0" shape-rendering="crispEdges" /><rect x="480" y="400" width="20" height="20" fill="rgb(0,0,0)" opacity="1.0" shape-rendering="crispEdges" /><rect x="160" y="420" width="20" height="20" fill="rgb(0,0,0)" opacity="1.0" shape-rendering="crispEdges" /><rect x="180" y="420" width="20" height="20" fill="rgb(0,0,0)" opacity="1.0" shape-rendering="crispEdges" /><rect x="220" y="420" width="20" height="20" fill="rgb(0,0,0)" opacity="1.0" shape-rendering="crispEdges" /><rect x="240" y="420" width="20" height="20" fill="rgb(0,0,0)" opacity="1.0" shape-rendering="crispEdges" /><rect x="280" y="420" width="20" height="20" fill="rgb(0,0,0)" opacity="1.0" shape-rendering="crispEdges" /><rect x="300" y="420" width="20" height="20" fill="rgb(0,0,0)" opacity="1.0" shape-rendering="crispEdges" /><rect x="320" y="420" width="20" height="20" fill="rgb(0,0,0)" opacity="1.0" shape-rendering="crispEdges" /><rect x="360" y="420" width="20" height="20" fill="rgb(0,0,0)" opacity="1.0" shape-rendering="crispEdges" /><rect x="380" y="420" width="20" height="20" fill="rgb(0,0,0)" opacity="1.0" shape-rendering="crispEdges" /><rect x="400" y="420" width="20" height="20" fill="rgb(0,0,0)" opacity="1.0" shape-rendering="crispEdges" /><rect x="480" y="420" width="20" height="20" fill="rgb(0,0,0)" opacity="1.0" shape-rendering="crispEdges" /><rect x="500" y="420" width="20" height="20" fill="rgb(0,0,0)" opacity="1.0" shape-rendering="crispEdges" /><rect x="520" y="420" width="20" height="20" fill="rgb(0,0,0)" opacity="1.0" shape-rendering="crispEdges" /><rect x="160" y="440" width="20" height="20" fill="rgb(0,0,0)" opacity="1.0" shape-rendering="crispEdges" /><rect x="200" y="440" width="20" height="20" fill="rgb(0,0,0)" opacity="1.0" shape-rendering="crispEdges" /><rect x="220" y="440" width="20" height="20" fill="rgb(0,0,0)" opacity="1.0" shape-rendering="crispEdges" /><rect x="260" y="440" width="20" height="20" fill="rgb(0,0,0)" opacity="1.0" shape-rendering="crispEdges" /><rect x="280" y="440" width="20" height="20" fill="rgb(0,0,0)" opacity="1.0" shape-rendering="crispEdges" /><rect x="300" y="440" width="20" height="20" fill="rgb(0,0,0)" opacity="1.0" shape-rendering="crispEdges" /><rect x="360" y="440" width="20" height="20" fill="rgb(0,0,0)" opacity="1.0" shape-rendering="crispEdges" /><rect x="380" y="440" width="20" height="20" fill="rgb(0,0,0)" opacity="1.0" shape-rendering="crispEdges" /><rect x="400" y="440" width="20" height="20" fill="rgb(0,0,0)" opacity="1.0" shape-rendering="crispEdges" /><rect x="440" y="440" width="20" height="20" fill="rgb(0,0,0)" opacity="1.0" shape-rendering="crispEdges" /><rect x="480" y="440" width="20" height="20" fill="rgb(0,0,0)" opacity="1.0" shape-rendering="crispEdges" /><rect x="500" y="440" width="20" height="20" fill="rgb(0,0,0)" opacity="1.0" shape-rendering="crispEdges" /><rect x="520" y="440" width="20" height="20" fill="rgb(0,0,0)" opacity="1.0" shape-rendering="crispEdges" /><rect x="560" y="440" width="20" height="20" fill="rgb(0,0,0)" opacity="1.0" shape-rendering="crispEdges" /><rect x="200" y="460" width="20" height="20" fill="rgb(0,0,0)" opacity="1.0" shape-rendering="crispEdges" /><rect x="220" y="460" width="20" height="20" fill="rgb(0,0,0)" opacity="1.0" shape-rendering="crispEdges" /><rect x="260" y="460" width="20" height="20" fill="rgb(0,0,0)" opacity="1.0" shape-rendering="crispEdges" /><rect x="400" y="460" width="20" height="20" fill="rgb(0,0,0)" opacity="1.0" shape-rendering="crispEdges" /><rect x="480" y="460" width="20" height="20" fill="rgb(0,0,0)" opacity="1.0" shape-rendering="crispEdges" /><rect x="520" y="460" width="20" height="20" fill="rgb(0,0,0)" opacity="1.0" shape-rendering="crispEdges" /><rect x="540" y="460" width="20" height="20" fill="rgb(0,0,0)" opacity="1.0" shape-rendering="crispEdges" /><rect x="160" y="480" width="20" height="20" fill="rgb(0,0,0)" opacity="1.0" shape-rendering="crispEdges" /><rect x="200" y="480" width="20" height="20" fill="rgb(0,0,0)" opacity="1.0" shape-rendering="crispEdges" /><rect x="240" y="480" width="20" height="20" fill="rgb(0,0,0)" opacity="1.0" shape-rendering="crispEdges" /><rect x="260" y="480" width="20" height="20" fill="rgb(0,0,0)" opacity="1.0" shape-rendering="crispEdges" /><rect x="360" y="480" width="20" height="20" fill="rgb(0,0,0)" opacity="1.0" shape-rendering="crispEdges" /><rect x="380" y="480" width="20" height="20" fill="rgb(0,0,0)" opacity="1.0" shape-rendering="crispEdges" /><rect x="400" y="480" width="20" height="20" fill="rgb(0,0,0)" opacity="1.0" shape-rendering="crispEdges" /><rect x="420" y="480" width="20" height="20" fill="rgb(0,0,0)" opacity="1.0" shape-rendering="crispEdges" /><rect x="440" y="480" width="20" height="20" fill="rgb(0,0,0)" opacity="1.0" shape-rendering="crispEdges" /><rect x="460" y="480" width="20" height="20" fill="rgb(0,0,0)" opacity="1.0" shape-rendering="crispEdges" /><rect x="480" y="480" width="20" height="20" fill="rgb(0,0,0)" opacity="1.0" shape-rendering="crispEdges" /><rect x="500" y="480" width="20" height="20" fill="rgb(0,0,0)" opacity="1.0" shape-rendering="crispEdges" /><rect x="560" y="480" width="20" height="20" fill="rgb(0,0,0)" opacity="1.0" shape-rendering="crispEdges" /><rect x="200" y="500" width="20" height="20" fill="rgb(0,0,0)" opacity="1.0" shape-rendering="crispEdges" /><rect x="280" y="500" width="20" height="20" fill="rgb(0,0,0)" opacity="1.0" shape-rendering="crispEdges" /><rect x="300" y="500" width="20" height="20" fill="rgb(0,0,0)" opacity="1.0" shape-rendering="crispEdges" /><rect x="320" y="500" width="20" height="20" fill="rgb(0,0,0)" opacity="1.0" shape-rendering="crispEdges" /><rect x="420" y="500" width="20" height="20" fill="rgb(0,0,0)" opacity="1.0" shape-rendering="crispEdges" /><rect x="460" y="500" width="20" height="20" fill="rgb(0,0,0)" opacity="1.0" shape-rendering="crispEdges" /><rect x="500" y="500" width="20" height="20" fill="rgb(0,0,0)" opacity="1.0" shape-rendering="crispEdges" /><rect x="520" y="500" width="20" height="20" fill="rgb(0,0,0)" opacity="1.0" shape-rendering="crispEdges" /><rect x="540" y="500" width="20" height="20" fill="rgb(0,0,0)" opacity="1.0" shape-rendering="crispEdges" /><rect x="200" y="520" width="20" height="20" fill="rgb(0,0,0)" opacity="1.0" shape-rendering="crispEdges" /><rect x="260" y="520" width="20" height="20" fill="rgb(0,0,0)" opacity="1.0" shape-rendering="crispEdges" /><rect x="320" y="520" width="20" height="20" fill="rgb(0,0,0)" opacity="1.0" shape-rendering="crispEdges" /><rect x="360" y="520" width="20" height="20" fill="rgb(0,0,0)" opacity="1.0" shape-rendering="crispEdges" /><rect x="380" y="520" width="20" height="20" fill="rgb(0,0,0)" opacity="1.0" shape-rendering="crispEdges" /><rect x="440" y="520" width="20" height="20" fill="rgb(0,0,0)" opacity="1.0" shape-rendering="crispEdges" /><rect x="480" y="520" width="20" height="20" fill="rgb(0,0,0)" opacity="1.0" shape-rendering="crispEdges" /><rect x="520" y="520" width="20" height="20" fill="rgb(0,0,0)" opacity="1.0" shape-rendering="crispEdges" /><rect x="540" y="520" width="20" height="20" fill="rgb(0,0,0)" opacity="1.0" shape-rendering="crispEdges" /><rect x="560" y="520" width="20" height="20" fill="rgb(0,0,0)" opacity="1.0" shape-rendering="crispEdges" /><rect x="200" y="540" width="20" height="20" fill="rgb(0,0,0)" opacity="1.0" shape-rendering="crispEdges" /><rect x="220" y="540" width="20" height="20" fill="rgb(0,0,0)" opacity="1.0" shape-rendering="crispEdges" /><rect x="240" y="540" width="20" height="20" fill="rgb(0,0,0)" opacity="1.0" shape-rendering="crispEdges" /><rect x="260" y="540" width="20" height="20" fill="rgb(0,0,0)" opacity="1.0" shape-rendering="crispEdges" /><rect x="280" y="540" width="20" height="20" fill="rgb(0,0,0)" opacity="1.0" shape-rendering="crispEdges" /><rect x="320" y="540" width="20" height="20" fill="rgb(0,0,0)" opacity="1.0" shape-rendering="crispEdges" /><rect x="380" y="540" width="20" height="20" fill="rgb(0,0,0)" opacity="1.0" shape-rendering="crispEdges" /><rect x="440" y="540" width="20" height="20" fill="rgb(0,0,0)" opacity="1.0" shape-rendering="crispEdges" /><rect x="460" y="540" width="20" height="20" fill="rgb(0,0,0)" opacity="1.0" shape-rendering="crispEdges" /><rect x="480" y="540" width="20" height="20" fill="rgb(0,0,0)" opacity="1.0" shape-rendering="crispEdges" /><rect x="500" y="540" width="20" height="20" fill="rgb(0,0,0)" opacity="1.0" shape-rendering="crispEdges" /><rect x="520" y="540" width="20" height="20" fill="rgb(0,0,0)" opacity="1.0" shape-rendering="crispEdges" /><rect x="160" y="560" width="20" height="20" fill="rgb(0,0,0)" opacity="1.0" shape-rendering="crispEdges" /><rect x="180" y="560" width="20" height="20" fill="rgb(0,0,0)" opacity="1.0" shape-rendering="crispEdges" /><rect x="200" y="560" width="20" height="20" fill="rgb(0,0,0)" opacity="1.0" shape-rendering="crispEdges" /><rect x="240" y="560" width="20" height="20" fill="rgb(0,0,0)" opacity="1.0" shape-rendering="crispEdges" /><rect x="260" y="560" width="20" height="20" fill="rgb(0,0,0)" opacity="1.0" shape-rendering="crispEdges" /><rect x="320" y="560" width="20" height="20" fill="rgb(0,0,0)" opacity="1.0" shape-rendering="crispEdges" /><rect x="340" y="560" width="20" height="20" fill="rgb(0,0,0)" opacity="1.0" shape-rendering="crispEdges" /><rect x="380" y="560" width="20" height="20" fill="rgb(0,0,0)" opacity="1.0" shape-rendering="crispEdges" /><rect x="400" y="560" width="20" height="20" fill="rgb(0,0,0)" opacity="1.0" shape-rendering="crispEdges" /><rect x="440" y="560" width="20" height="20" fill="rgb(0,0,0)" opacity="1.0" shape-rendering="crispEdges" /><rect x="480" y="560" width="20" height="20" fill="rgb(0,0,0)" opacity="1.0" shape-rendering="crispEdges" /><rect x="540" y="560" width="20" height="20" fill="rgb(0,0,0)" opacity="1.0" shape-rendering="crispEdges" /><path d="M0,0 h140 v140 h-140 Z M20.0,20.0 h100.0 v100.0 h-100.0 Z" fill-rule="evenodd" fill="rgb(0,0,0)" opacity="1.0" shape-rendering="crispEdges" /><path d="M440,0 h140 v140 h-140 Z M460.0,20.0 h100.0 v100.0 h-100.0 Z" fill-rule="evenodd" fill="rgb(0,0,0)" opacity="1.0" shape-rendering="crispEdges" /><rect x="40" y="40" width="60" height="60" fill="rgb(0,0,0)" opacity="1.0" shape-rendering="crispEdges" /><rect x="480" y="40" width="60" height="60" fill="rgb(0,0,0)" opacity="1.0" shape-rendering="crispEdges" /><path d="M0,440 h140 v140 h-140 Z M20.0,460.0 h100.0 v100.0 h-100.0 Z" fill-rule="evenodd" fill="rgb(0,0,0)" opacity="1.0" shape-rendering="crispEdges" /><rect x="40" y="480" width="60" height="60" fill="rgb(0,0,0)" opacity="1.0" shape-rendering="crispEdges" /></svg></g></svg>